<?xml version="1.0" encoding="UTF-8"?>
<svg id="Layer_1" data-name="Layer 1" xmlns="http://www.w3.org/2000/svg" version="1.1" viewBox="0 0 288.28 74.2">
  <defs>
    <style>
      .cls-1 {
        fill: #673a96;
        fill-rule: evenodd;
        stroke-width: 0px;
      }
    </style>
  </defs>
  <path class="cls-1" d="M30.34,69.05c-6.75-.26-13.27-1.65-16.99-5.75-3.72-4.09-4.65-10.89-5.09-17.85-.44-6.97-.39-14.11.6-20.15.99-6.04,2.93-10.96,5.9-13.98,2.97-3.02,6.98-4.13,12.58-4.51,5.6-.38,12.79-.04,16.73,2.03,3.94,2.07,4.62,5.85,2.73,8.8-1.9,2.95-6.38,5.06-8.94,6.93-2.56,1.87-3.21,3.52-1,5.23,2.21,1.71,7.26,3.5,9.66,5.95,2.4,2.45,2.15,5.58-.35,7.6-2.5,2.02-7.24,2.92-9.43,4.4-2.19,1.48-1.82,3.54,1,5.09,2.81,1.55,8.06,2.6,10.69,4.97,2.63,2.37,2.63,6.04-.86,8.33-3.49,2.28-10.49,3.17-17.24,2.91h0Z"/>
  <path class="cls-1" d="M101.51,10.96c-1.27,4.25-1.9,11.11-1.79,19.52.11,8.41.95,18.37,2.49,25.37,1.53,7,3.75,11.05,6.21,11.76,2.45.71,5.13-1.91,7.17-4.85,2.03-2.94,3.42-6.21,6.14-5.62,2.72.59,6.76,5.04,11.43,8.15,4.67,3.11,9.96,4.89,11.98,2.98,2.02-1.91.79-7.52-2.2-13.41-2.99-5.89-7.73-12.06-7.97-17.02-.24-4.96,4.01-8.7,7.71-14.16,3.7-5.46,6.84-12.64,4.98-14.91-1.86-2.27-8.73.39-14.57,3.11-5.84,2.72-10.66,5.51-13.75,4.8-3.09-.71-4.46-4.93-6.29-7.72-1.83-2.8-4.13-4.17-6.23-4.03-2.11.14-4.02,1.79-5.29,6.04h0Z"/>
  <path class="cls-1" d="M263.82,9.51c-3.22,1.88-4.32,6.64-4.79,13.16-.47,6.52-.29,14.8-.37,22.1-.08,7.3-.41,13.62.88,17.15,1.28,3.52,4.18,4.25,7.21,4.7,3.04.45,6.22.62,8.77-.79,2.55-1.41,4.47-4.41,4.72-14.04.26-9.63-1.14-25.91-4.51-34.53-3.37-8.63-8.7-9.62-11.91-7.73h0Z"/>
  <path class="cls-1" d="M185.82,12.19c-2.03,4.77-3.47,12.57-3.98,21.21-.51,8.65-.1,18.14,1.07,24.71,1.17,6.57,3.09,10.21,6.01,10.67,2.92.46,6.84-2.27,9.62-5.4,2.79-3.14,4.44-6.69,6.74-6.84,2.3-.14,5.25,3.12,8.25,5.98,3,2.86,6.06,5.32,8.92,4.01,2.85-1.3,5.5-6.37,7.73-9.06,2.22-2.69,4.02-3,7.14-.53,3.12,2.47,7.57,7.72,10.41,6.67,2.84-1.05,4.06-8.41,4.17-18.61.11-10.2-.9-23.25-3.81-30.24-2.91-6.99-7.71-7.91-12.82-5.91-5.11,2-10.52,6.92-17.6,6.58-7.08-.34-15.82-5.94-21.5-7.86-5.68-1.92-8.3-.17-10.34,4.61h0Z"/>
  <path class="cls-1" d="M150.65,37.19c-.6,9.57-.1,17.9,1.07,22.86,1.17,4.96,3,6.55,5.93,7.58,2.94,1.03,6.97,1.5,10.24.79,3.27-.71,5.77-2.6,6.59-8.97.82-6.36-.04-17.2-1.04-26.98-1.01-9.78-2.16-18.5-5.32-22.74-3.16-4.24-8.32-3.99-11.75,1.54-3.43,5.53-5.12,16.34-5.71,25.91h0Z"/>
  <path class="cls-1" d="M69.01,6.96c-7.11,1.23-11.84,4.69-14.2,8.67-2.36,3.98-2.35,8.47,1.09,14.33,3.43,5.87,10.29,13.11,12.88,17.35,2.59,4.25.92,5.5-2.13,6.66-3.06,1.16-7.5,2.24-9.9,4.13-2.39,1.9-2.74,4.61-1.46,6.63,1.28,2.01,4.19,3.32,8.88,4.04,4.7.71,11.19.83,16.62-.55,5.43-1.38,9.79-4.26,12.1-8.35,2.31-4.09,2.57-9.39-.12-15.34-2.69-5.94-8.33-12.53-10.58-16.44-2.26-3.91-1.13-5.14,1.55-6.22,2.68-1.07,6.92-1.98,9.07-4.31,2.16-2.33,2.23-6.08-2.49-8.46-4.71-2.38-14.22-3.37-21.33-2.14Z"/>
</svg>